# xmcd
#
# Track frame offsets:
#	150
#	23529
#	35027
#	54535
#	84369
#	106856
#	130880
#	151999
#	174333
#	194121
#	210735
#	227124
#	260616
#	283928
#	305737
#	326994
#
# Disc length: 4662 seconds
#
# Revision: 0
# Processed by: cddbd v1.5.2PL0 Copyright (c) Steve Scherf et al.
# Submitted via: dBpowerAMP V4.0
#
DISCID=e9123410
DTITLE=RX Blues - Live IN Soulard
DYEAR=2005
DGENRE=Blues
TTITLE0=The Thrill Is Gone
TTITLE1=St. Louis Shuffle
TTITLE2=Voodoo
TTITLE3=Sky Is Crying
TTITLE4=I Hate My Boss
TTITLE5=Use Me
TTITLE6=Midnight Train
TTITLE7=Let's Get It On
TTITLE8=Problems No More
TTITLE9=Big Legs
TTITLE10=Chain Of Fools
TTITLE11=Dr. Feelgood
TTITLE12=Chairman Of The Board
TTITLE13=Eat Good Eat Bad
TTITLE14=Hit It Twice
TTITLE15=Hang Dog Look
EXTD=
EXTT0=
EXTT1=
EXTT2=
EXTT3=
EXTT4=
EXTT5=
EXTT6=
EXTT7=
EXTT8=
EXTT9=
EXTT10=
EXTT11=
EXTT12=
EXTT13=
EXTT14=
EXTT15=
PLAYORDER=
